<?xml version="1.0" standalone="no"?><!DOCTYPE svg PUBLIC "-//W3C//DTD SVG 1.1//EN" "http://www.w3.org/Graphics/SVG/1.1/DTD/svg11.dtd"><svg class="icon" width="200px" height="200.00px" viewBox="0 0 1024 1024" version="1.1" xmlns="http://www.w3.org/2000/svg"><path d="M871 506.1L419.6 957.6c-5.9 5.9-15.6 5.9-21.5 0l-315-315c-5.9-5.9-5.9-15.6 0-21.5l451.5-451.5c5.9-5.9 15.6-5.9 21.5 0l315 315c5.9 5.9 5.9 15.6-0.1 21.5z" fill="#515151" /><path d="M408.9 980.5c-9 0-17.4-3.5-23.8-9.9l-315-315C57 642.5 57 621.1 70.1 608l451.5-451.5c6.4-6.4 14.8-9.9 23.8-9.9s17.4 3.5 23.8 9.9l315 315c6.4 6.4 9.9 14.8 9.9 23.8s-3.5 17.4-9.9 23.8L432.7 970.6c-6.4 6.4-14.9 9.9-23.8 9.9zM98.5 631.8l310.4 310.4 446.8-446.8L545.3 185 98.5 631.8zM871 506.1z" fill="#515151" /><path d="M804.1 436.2c-4.7 0-9.4-1.8-13.1-5.4L609.9 249.6c-3.5-3.5-5.4-8.2-5.4-13.1s1.9-9.6 5.4-13.1l50.2-50.2c6.4-6.4 14.8-9.9 23.8-9.9s17.4 3.5 23.8 9.9L867.4 333c6.4 6.4 9.9 14.8 9.9 23.8s-3.5 17.4-9.9 23.8l-50.2 50.2c-3.6 3.6-8.3 5.4-13.1 5.4zM649 236.5l155.1 155.1 34.8-34.8-155-155.1-34.9 34.8z m205.3 131z" fill="#515151" /><path d="M790.4 300.5c-4.7 0-9.4-1.8-13.1-5.4l-31.8-31.8c-3.5-3.5-5.4-8.2-5.4-13.1s1.9-9.6 5.4-13.1l50.8-50.8c7.2-7.2 18.9-7.2 26.1 0l31.8 31.8c3.5 3.5 5.4 8.2 5.4 13.1s-1.9 9.6-5.4 13.1l-50.8 50.8c-3.6 3.6-8.3 5.4-13 5.4z m-5.7-50.2l5.7 5.7 24.7-24.7-5.7-5.7-24.7 24.7z" fill="#515151" /><path d="M870.6 279.2c-4.7 0-9.4-1.8-13.1-5.4l-90.7-90.7c-3.5-3.5-5.4-8.2-5.4-13.1s1.9-9.6 5.4-13.1l74.8-74.8c7.2-7.2 18.9-7.2 26.1 0l90.7 90.7c7.2 7.2 7.2 18.9 0 26.1l-74.8 74.8c-3.6 3.7-8.3 5.5-13 5.5zM806 170.1l64.6 64.6 48.7-48.7-64.6-64.6-48.7 48.7z" fill="#515151" /><path d="M840.5 249.2c-4.7 0-9.4-1.8-13.1-5.4-7.2-7.2-7.2-18.9 0-26.1l74.8-74.8c7.2-7.2 18.9-7.2 26.1 0 7.2 7.2 7.2 18.9 0 26.1l-74.8 74.8c-3.5 3.6-8.2 5.4-13 5.4zM810 218.7c-4.7 0-9.4-1.8-13.1-5.4-7.2-7.2-7.2-18.9 0-26.1l74.8-74.8c7.2-7.2 18.9-7.2 26.1 0 7.2 7.2 7.2 18.9 0 26.1L823 213.3c-3.5 3.5-8.3 5.4-13 5.4z" fill="#515151" /><path d="M622.8 177.7c-4.7 0-9.4-1.8-13.1-5.4l-38.9-38.9c-7.2-7.2-7.2-18.9 0-26.1 7.2-7.2 18.9-7.2 26.1 0l25.9 25.9 47.7-47.7c3.5-3.5 8.2-5.4 13.1-5.4h0.2c5 0 9.7 2.1 13.1 5.7l31.4 32.6 73.8-73.8c7.2-7.2 18.9-7.2 26.1 0 7.2 7.2 7.2 18.9 0 26.1l-87.2 87c-3.5 3.5-8.3 5.5-13.2 5.4-5 0-9.7-2.1-13.1-5.7l-31.4-32.6-47.5 47.5c-3.6 3.6-8.3 5.4-13 5.4z" fill="#515151" /></svg>